<svg width="123" height="37" viewBox="0 0 123 37" fill="none" xmlns="http://www.w3.org/2000/svg">
    <path
        d="M27.169 29.9344C27.169 31.7699 27.169 33.6055 27.1686 35.441C27.1686 35.5812 27.1671 35.7215 27.1599 35.8613C27.1534 35.9855 27.0982 36.0518 26.9849 36.0808C26.8862 36.106 26.7872 36.1319 26.687 36.1497C25.8311 36.3021 24.9695 36.3681 24.0995 36.3323C23.768 36.3186 23.438 36.3019 23.1107 36.2435C22.9345 36.212 22.7629 36.1679 22.595 36.1066C22.036 35.9023 21.6511 35.5191 21.4217 34.9735C21.2867 34.6522 21.2261 34.3146 21.2041 33.9698C21.1905 33.7539 21.1907 33.5367 21.1905 33.3202C21.1896 30.6178 21.1892 27.9154 21.1909 25.2132C21.1909 24.9701 21.1745 24.7306 21.1265 24.4917C21.0017 23.8708 20.6524 23.4319 20.075 23.1737C19.781 23.0422 19.47 22.9727 19.1516 22.9462C18.8212 22.9188 18.4906 22.9288 18.1601 22.9764C17.8568 23.0201 17.5564 23.0716 17.2624 23.1584C16.9678 23.2451 16.6881 23.3648 16.42 23.5153C16.2602 23.6049 16.1703 23.7203 16.185 23.9118C16.1948 24.0385 16.1863 24.1666 16.1863 24.2939C16.1863 28.0288 16.1863 31.7637 16.1859 35.4986C16.1859 35.6387 16.1832 35.7789 16.1782 35.9189C16.1757 35.9899 16.1306 36.0402 16.0679 36.0605C15.9714 36.0919 15.8722 36.1176 15.7722 36.1342C15.2192 36.2251 14.6669 36.3137 14.1037 36.3296C13.6572 36.3422 13.2116 36.3383 12.7659 36.3199C12.434 36.3062 12.1057 36.2578 11.787 36.1644C11.6293 36.1182 11.4728 36.0567 11.3272 35.9803C10.8254 35.7164 10.5218 35.2876 10.3539 34.757C10.3003 34.5876 10.2699 34.4116 10.245 34.234C10.1916 33.8537 10.1879 33.4725 10.1879 33.0899C10.1891 29.7503 10.1902 26.4104 10.186 23.0708C10.1856 22.7629 10.2142 22.4598 10.262 22.1582C10.321 21.787 10.4705 21.4516 10.6984 21.1514C10.9469 20.8241 11.2403 20.5423 11.569 20.2974C12.1241 19.8839 12.729 19.5591 13.3659 19.292C14.2861 18.9059 15.2412 18.6382 16.2242 18.4711C16.5126 18.4221 16.8059 18.403 17.0962 18.3641C17.8314 18.2658 18.5709 18.267 19.3096 18.2811C20.3058 18.2999 21.2907 18.4181 22.2559 18.6771C23.0362 18.8866 23.7767 19.1881 24.4566 19.6282C25.2169 20.1204 25.8479 20.7406 26.316 21.5207C26.6942 22.1511 26.9307 22.8325 27.0566 23.5555C27.1421 24.0472 27.1681 24.5422 27.1681 25.0399C27.1681 26.6715 27.1681 28.3031 27.1681 29.9348L27.169 29.9344Z"
        fill="#1C5196" />
    <path
        d="M58.964 36.6201C58.7217 36.6201 58.4791 36.6302 58.2375 36.6184C56.8133 36.5485 55.4326 36.2772 54.1223 35.6996C52.9505 35.1829 51.9302 34.4555 51.106 33.4697C50.2408 32.4349 49.6661 31.2519 49.352 29.9422C49.2243 29.4089 49.1524 28.8675 49.0984 28.3209C49.0404 27.735 49.0491 27.1502 49.0587 26.5649C49.0636 26.2601 49.0976 25.9546 49.1371 25.6519C49.223 24.9939 49.3537 24.3447 49.5845 23.7205C50.0938 22.3433 50.8716 21.1508 52.0172 20.2148C52.8161 19.562 53.7109 19.0848 54.6935 18.7746C55.3138 18.5788 55.9467 18.4405 56.5936 18.3581C57.2793 18.2707 57.9644 18.2639 58.6528 18.2985C59.407 18.3364 60.1459 18.461 60.868 18.6794C61.9784 19.0154 62.9945 19.5318 63.8822 20.2852C65.0253 21.2553 65.7764 22.4725 66.149 23.9229C66.3244 24.6059 66.3952 25.3016 66.3704 26.0061C66.36 26.3007 66.3035 26.5887 66.2027 26.8653C66.059 27.2595 65.8095 27.576 65.4694 27.8218C65.0911 28.0951 64.6681 28.2665 64.2143 28.3593C63.9152 28.4205 63.6127 28.4655 63.3106 28.512C62.8576 28.5818 62.4038 28.6464 61.9504 28.7139C61.5475 28.7739 61.1446 28.8348 60.7417 28.8957C60.2886 28.964 59.8354 29.0333 59.3822 29.101C58.9793 29.1613 58.576 29.2193 58.1731 29.2795C57.7323 29.3456 57.2922 29.4141 56.8514 29.4797C56.4232 29.5435 55.9945 29.6033 55.5663 29.6683C55.4154 29.6913 55.2659 29.7232 55.1162 29.753C55.0678 29.7625 55.0305 29.8221 55.0425 29.8706C55.0579 29.9319 55.0715 29.9948 55.0962 30.0526C55.3007 30.5331 55.6189 30.9236 56.0367 31.2349C56.4087 31.5122 56.8243 31.703 57.2611 31.8496C57.7828 32.0246 58.3166 32.1395 58.8689 32.1571C58.9577 32.16 59.0468 32.1709 59.1352 32.1821C59.3258 32.2065 59.5163 32.203 59.7076 32.1877C59.8853 32.1734 60.0633 32.1604 60.2413 32.1525C60.6755 32.1333 61.1041 32.066 61.5272 31.9751C62.3013 31.8088 63.0522 31.5664 63.77 31.2289C63.9083 31.1639 64.0414 31.0884 64.1783 31.0202C64.2634 30.9778 64.3516 30.972 64.4315 31.031C65.0646 31.4981 65.4718 32.1138 65.5969 32.8925C65.6575 33.2705 65.6339 33.656 65.5242 34.0293C65.399 34.4545 65.1756 34.8199 64.8489 35.1205C64.6317 35.3203 64.3886 35.4826 64.1272 35.6185C63.5015 35.9431 62.8431 36.1774 62.1529 36.3186C61.5784 36.4362 60.9976 36.5052 60.4138 36.5619C59.9306 36.6089 59.448 36.6263 58.9635 36.6203L58.964 36.6201ZM57.9073 22.6284C57.6476 22.6093 57.383 22.6356 57.1191 22.6905C56.2684 22.8675 55.5899 23.2983 55.1115 24.0318C54.8198 24.479 54.68 24.9786 54.5974 25.4985C54.5895 25.5484 54.5935 25.6001 54.5939 25.651C54.5945 25.7384 54.6523 25.8024 54.7314 25.7972C54.8328 25.7906 54.9345 25.7819 55.0349 25.7664C55.2864 25.7276 55.5371 25.6842 55.7885 25.6434C56.1655 25.5821 56.5429 25.5227 56.9197 25.4604C57.4597 25.3709 57.999 25.2784 58.5389 25.1892C59.1041 25.0958 59.6695 25.0047 60.2349 24.9121C60.3604 24.8916 60.4861 24.8707 60.6105 24.8457C60.6914 24.8293 60.738 24.7519 60.7229 24.6743C60.6832 24.4726 60.6115 24.2824 60.5142 24.102C60.3805 23.854 60.2117 23.6314 60.0244 23.4211C59.6809 23.0356 59.2505 22.8089 58.7511 22.6983C58.4756 22.6373 58.1981 22.6093 57.907 22.6284H57.9073Z"
        fill="#1C5196" />
    <path
        d="M75.362 29.8537C75.362 31.7274 75.3622 33.6008 75.3613 35.4745C75.3613 35.6144 75.357 35.7546 75.3489 35.8943C75.3433 35.9898 75.2829 36.0542 75.1845 36.0798C75.0982 36.1024 75.0121 36.1272 74.9241 36.1409C74.3705 36.2277 73.8181 36.3163 73.255 36.3303C72.8084 36.3415 72.3631 36.337 71.9173 36.3179C71.6242 36.3055 71.3347 36.2577 71.0501 36.1865C70.1809 35.9691 69.6795 35.3964 69.4814 34.5416C69.4269 34.3066 69.3897 34.0675 69.3948 33.8228C69.4002 33.5681 69.3849 33.313 69.3849 33.0584C69.3841 29.7956 69.3841 26.5327 69.3849 23.2701C69.3849 23.0407 69.3924 22.8115 69.3973 22.5821C69.412 21.9142 69.6623 21.3467 70.119 20.8627C70.5078 20.4509 70.9592 20.1219 71.4457 19.8385C72.1649 19.4197 72.9326 19.1128 73.7256 18.8665C74.4572 18.6394 75.2052 18.4835 75.9648 18.3911C76.9277 18.2739 77.8946 18.252 78.8641 18.2951C79.3871 18.3183 79.9055 18.3735 80.4206 18.4572C81.369 18.6114 82.2827 18.8801 83.1356 19.3325C83.8762 19.725 84.5223 20.2341 85.0532 20.8863C85.6279 21.5921 85.996 22.396 86.1854 23.2819C86.2948 23.7935 86.3471 24.3119 86.3467 24.8371C86.3434 28.4312 86.3453 32.0255 86.3453 35.6196C86.3453 36.0947 86.3709 36.0496 85.9273 36.1339C85.39 36.2361 84.8478 36.3134 84.2975 36.3279C83.8511 36.3397 83.4056 36.3401 82.9599 36.3208C82.6278 36.3063 82.3009 36.2581 81.98 36.1716C81.1943 35.9593 80.7179 35.4397 80.4984 34.6704C80.439 34.4621 80.4024 34.2482 80.398 34.03C80.3918 33.7242 80.3763 33.4186 80.3761 33.1128C80.3742 30.5893 80.3761 28.0658 80.3736 25.5421C80.3734 25.2621 80.3668 24.9808 80.3388 24.7023C80.267 23.9852 79.9115 23.4624 79.2434 23.1663C78.9606 23.0411 78.6614 22.9761 78.3567 22.9479C78.0265 22.9175 77.6954 22.9249 77.3654 22.9728C77.0499 23.0185 76.7364 23.0707 76.4304 23.161C76.111 23.2552 75.81 23.3902 75.5261 23.5645C75.4323 23.6222 75.3762 23.7019 75.3719 23.8125C75.3665 23.9525 75.362 24.0926 75.362 24.2328C75.3613 26.1064 75.3615 27.9799 75.3615 29.8535L75.362 29.8537Z"
        fill="#1C5196" />
    <path
        d="M38.4707 36.4694C38.2285 36.4694 37.9852 36.4841 37.7442 36.4665C37.1324 36.4216 36.5292 36.3239 35.9546 36.0978C35.7894 36.0328 35.6284 35.9531 35.4745 35.8645C35.1236 35.6624 34.8543 35.3786 34.6673 35.0183C34.4381 34.5769 34.2356 34.1231 34.0439 33.6645C33.4636 32.277 32.9382 30.8686 32.4282 29.4539C31.8276 27.7879 31.256 26.112 30.7244 24.4228C30.2768 23.0009 29.8612 21.5697 29.5068 20.1213C29.4795 20.0099 29.4557 19.8979 29.4306 19.7861C29.4122 19.7041 29.4341 19.6327 29.4979 19.5797C29.6153 19.4819 29.73 19.3793 29.8561 19.294C30.4546 18.8888 31.1012 18.605 31.8241 18.5027C32.4767 18.4103 33.1195 18.437 33.7564 18.6068C33.781 18.6134 33.8058 18.6188 33.8303 18.6261C34.5127 18.8296 35.022 19.2412 35.3499 19.8774C35.5321 20.231 35.6631 20.6028 35.7615 20.986C36.148 22.4912 36.5358 23.9959 36.9117 25.5037C37.3432 27.2341 37.7912 28.9599 38.2587 30.681C38.2987 30.8284 38.337 30.9764 38.3796 31.1232C38.3898 31.1584 38.4121 31.1909 38.4326 31.2224C38.4711 31.282 38.5949 31.2882 38.6339 31.2311C38.6622 31.1897 38.6916 31.1456 38.7053 31.0984C38.744 30.9638 38.7742 30.8269 38.8088 30.6911C39.3748 28.4693 39.909 26.2399 40.4131 24.0031C40.7379 22.5618 41.0493 21.1175 41.3327 19.6674C41.3572 19.5424 41.3814 19.4173 41.4077 19.2927C41.4327 19.1743 41.493 19.0882 41.6087 19.0329C42.0019 18.8451 42.4132 18.711 42.8368 18.6165C43.3985 18.4913 43.9674 18.4261 44.544 18.4559C45.0314 18.4809 45.5049 18.5737 45.9529 18.7718C46.1036 18.8385 46.2479 18.9223 46.3883 19.0097C46.6798 19.1911 46.8761 19.4552 47.0046 19.7691C47.0868 19.9701 47.144 20.1809 47.1616 20.3976C47.1885 20.7285 47.1878 21.0591 47.1342 21.3889C47.0114 22.1448 46.8119 22.8825 46.6117 23.6201C46.0804 25.577 45.4165 27.4902 44.701 29.386C44.1565 30.8284 43.5977 32.2654 42.9693 33.6739C42.7151 34.2438 42.4404 34.8047 42.183 35.3736C42.094 35.5705 41.9545 35.7038 41.7692 35.8049C41.5106 35.9461 41.2408 36.0599 40.9601 36.145C40.5576 36.2672 40.1502 36.3703 39.7289 36.4077C39.5767 36.4214 39.426 36.4564 39.2738 36.4638C39.0065 36.4771 38.7386 36.4769 38.4709 36.4823V36.4692L38.4707 36.4694Z"
        fill="#1C5196" />
    <path
        d="M90.3013 15.3525C90.5352 15.2367 90.7803 15.2225 91.0151 15.1719C91.7546 15.0125 92.5049 14.9815 93.2587 15.0024C93.7326 15.0154 94.1982 15.0817 94.6481 15.2347C94.8044 15.2877 94.9576 15.3523 95.1069 15.4231C95.4804 15.6001 95.7396 15.8872 95.9001 16.2669C96.0303 16.575 96.104 16.8974 96.1307 17.229C96.1481 17.4447 96.1528 17.6619 96.1539 17.8785C96.157 18.4776 96.1539 19.0768 96.1562 19.6759C96.1566 19.79 96.1671 19.9045 96.1777 20.0184C96.1833 20.0799 96.2456 20.1407 96.3038 20.1434C96.4309 20.1496 96.5584 20.1548 96.6858 20.155C97.9224 20.1558 99.159 20.1552 100.396 20.1561C100.51 20.1561 100.625 20.1596 100.739 20.1674C100.805 20.172 100.858 20.2084 100.895 20.265C100.909 20.2863 100.925 20.307 100.936 20.3298C101.292 21.0649 101.487 21.8339 101.432 22.6576C101.415 22.8997 101.393 23.1398 101.333 23.3756C101.109 24.2597 100.442 24.6156 99.8202 24.6888C99.631 24.7112 99.4389 24.7184 99.248 24.7193C98.3938 24.7224 97.5398 24.7199 96.6855 24.7216C96.5586 24.7218 96.4313 24.7321 96.3046 24.7423C96.2441 24.747 96.1808 24.8093 96.1744 24.8656C96.1657 24.9414 96.1574 25.0176 96.1566 25.0938C96.1541 25.3106 96.1551 25.5273 96.1551 25.7439C96.1551 27.159 96.1562 28.574 96.1541 29.9891C96.1539 30.2067 96.1673 30.4218 96.2125 30.6348C96.3023 31.0586 96.5296 31.3793 96.9149 31.5847C97.142 31.7058 97.3839 31.7861 97.6354 31.8307C98.0642 31.9064 98.4969 31.9238 98.9308 31.8849C99.401 31.8427 99.8666 31.7731 100.323 31.6495C100.372 31.6363 100.422 31.6226 100.472 31.6218C100.507 31.6213 100.545 31.6385 100.578 31.6551C100.599 31.6661 100.617 31.688 100.632 31.7083C100.891 32.059 101.11 32.429 101.22 32.8573C101.265 33.0321 101.28 33.2099 101.29 33.3867C101.326 34.0689 101.183 34.7049 100.764 35.26C100.491 35.6219 100.155 35.9074 99.7414 36.1018C99.3573 36.2825 98.9534 36.3999 98.537 36.4622C97.6783 36.591 96.8156 36.6531 95.946 36.5686C95.6293 36.5378 95.3113 36.5235 94.9959 36.4725C94.3514 36.3684 93.7262 36.2007 93.1297 35.9324C92.7915 35.7804 92.4728 35.5941 92.1739 35.3751C91.5853 34.9438 91.1443 34.3912 90.8383 33.7308C90.5955 33.2068 90.4514 32.6536 90.3584 32.0853C90.2779 31.5928 90.2619 31.0965 90.2619 30.599C90.2617 29.7193 90.2619 28.8399 90.2619 27.9602C90.2619 23.9572 90.2619 19.9544 90.2619 15.9514C90.2619 15.8113 90.2603 15.6709 90.2665 15.5309C90.2692 15.4694 90.2895 15.4088 90.3008 15.3529L90.3013 15.3525Z"
        fill="#1C5196" />
    <path
        d="M104.592 26.5682C104.592 24.2478 104.592 21.9276 104.592 19.6072C104.592 19.4796 104.592 19.3521 104.595 19.2248C104.599 19.103 104.649 19.0432 104.777 19.0175C104.939 18.9846 105.102 18.9571 105.265 18.9279C106.184 18.7622 107.11 18.6985 108.043 18.7656C108.348 18.7875 108.651 18.8281 108.948 18.9076C109.732 19.1177 110.219 19.6272 110.439 20.3995C110.53 20.7195 110.563 21.0498 110.577 21.3812C110.583 21.5212 110.58 21.6617 110.58 21.8019C110.58 26.3662 110.58 30.9304 110.58 35.4945C110.58 35.6092 110.582 35.7241 110.576 35.8386C110.569 35.9804 110.529 36.033 110.37 36.0708C110.259 36.0973 110.145 36.1112 110.032 36.1301C109.818 36.1657 109.605 36.2023 109.391 36.2363C108.619 36.3586 107.841 36.358 107.064 36.3145C106.772 36.2982 106.482 36.2497 106.198 36.1715C105.462 35.9688 104.987 35.4951 104.753 34.7752C104.651 34.4583 104.61 34.1289 104.596 33.797C104.589 33.6316 104.592 33.4655 104.592 33.2999C104.592 31.0561 104.592 28.8123 104.592 26.5684L104.592 26.5682Z"
        fill="#1C5196" />
    <path
        d="M6.25902 28.416C6.25902 30.7606 6.25902 33.1053 6.25881 35.4501C6.25881 35.5903 6.25736 35.7305 6.25219 35.8704C6.24846 35.9715 6.19339 36.0389 6.09629 36.0601C5.98449 36.0845 5.87145 36.1037 5.75862 36.1224C5.50748 36.1636 5.25573 36.2015 5.00481 36.2433C4.25804 36.3679 3.50651 36.3511 2.75539 36.3145C2.46327 36.3002 2.17363 36.2503 1.8902 36.1719C1.09064 35.9501 0.612808 35.4178 0.401634 34.6303C0.322133 34.3336 0.297289 34.0287 0.291285 33.7222C0.289007 33.6075 0.289628 33.4929 0.289628 33.3782C0.289628 28.7907 0.289422 24.2033 0.29025 19.6158C0.29025 19.4632 0.299152 19.3107 0.309089 19.1585C0.312609 19.1051 0.351324 19.0662 0.400805 19.0463C0.447801 19.0274 0.496662 19.0098 0.54635 19.0018C1.01135 18.9274 1.47593 18.8481 1.94258 18.7856C2.16908 18.7552 2.40012 18.7473 2.6291 18.7469C3.01129 18.7461 3.39368 18.7515 3.77524 18.7693C4.08061 18.7833 4.3833 18.8334 4.67832 18.9163C5.04063 19.0181 5.35925 19.1966 5.62156 19.4713C5.89319 19.7558 6.05861 20.0974 6.15157 20.4732C6.20643 20.6949 6.2497 20.921 6.24929 21.1526C6.24887 21.3692 6.2586 21.5857 6.25881 21.8023C6.25964 24.0068 6.25922 26.2113 6.25922 28.416H6.25902Z"
        fill="#1C5196" />
    <path
        d="M116.778 8.70522C116.421 8.69818 116.064 8.68638 115.708 8.68514C115.02 8.68265 114.369 8.84973 113.746 9.1284C112.785 9.55882 111.984 10.1977 111.35 11.0389C110.85 11.7018 110.526 12.4455 110.392 13.2643C110.346 13.5397 110.342 13.8225 110.33 14.1024C110.319 14.3707 110.294 14.6349 110.228 14.8961C109.957 15.957 109.056 16.8302 107.93 17.059C106.365 17.3768 104.752 16.4091 104.384 14.7367C104.053 12.8668 105.218 11.5933 106.462 11.2316C106.873 11.1124 107.29 11.0751 107.71 11.1292C108.068 11.1751 108.419 11.1664 108.776 11.1248C109.419 11.0499 110.019 10.8528 110.588 10.5544C110.951 10.3644 111.285 10.13 111.595 9.86357C112.142 9.39485 112.607 8.85801 112.96 8.2278C113.393 7.45639 113.625 6.63116 113.619 5.74423C113.616 5.36184 113.611 4.97945 113.569 4.59851C113.546 4.38257 113.555 4.16788 113.583 3.95091C113.623 3.64678 113.676 3.34699 113.769 3.05445C114.23 1.61309 115.391 0.512707 116.855 0.133423C117.315 0.0143784 117.782 -0.0206109 118.257 0.0110652C119.234 0.0762807 120.091 0.433414 120.825 1.07149C121.569 1.71888 122.057 2.52983 122.241 3.50413C122.502 4.88794 122.2 6.13842 121.29 7.22307C120.654 7.98122 119.839 8.45719 118.875 8.67064C118.576 8.73669 118.27 8.76878 117.963 8.75822C117.568 8.74476 117.173 8.72696 116.778 8.71122C116.778 8.70957 116.778 8.7077 116.778 8.70605L116.778 8.70522Z"
        fill="#1C5196" />
    <path
        d="M3.29156 10.7919C3.65076 10.7816 4.02612 10.8278 4.39712 10.9352C5.47411 11.2472 6.31176 12.2437 6.49147 13.2981C6.58525 13.8488 6.56207 14.3854 6.41487 14.9214C6.17429 15.7974 5.36376 16.8191 4.04185 17.0508C3.66153 17.1174 3.28142 17.1379 2.90172 17.105C1.78415 17.0085 0.925795 16.4887 0.373016 15.4993C0.145901 15.0931 0.0322387 14.6519 0.00739474 14.1877C-0.0166211 13.7391 0.0129856 13.2944 0.168882 12.8706C0.557276 11.8141 1.29079 11.1367 2.39532 10.8733C2.68289 10.8048 2.97356 10.7878 3.29177 10.7917L3.29156 10.7919Z"
        fill="#1C5196" />
</svg>