<svg width="19" height="19" viewBox="0 0 19 19" fill="none" xmlns="http://www.w3.org/2000/svg">
    <path
        d="M15.575 18.4131L8.69799 11.5043C8.34482 11.657 7.98616 11.7747 7.62199 11.8573C7.25799 11.94 6.87149 11.9813 6.46249 11.9813C4.89999 11.9813 3.57124 11.4338 2.47624 10.3388C1.38124 9.24382 0.83374 7.91507 0.83374 6.35257C0.83374 5.85624 0.89474 5.38091 1.01674 4.92657C1.13891 4.47207 1.31699 4.03874 1.55099 3.62657L5.08274 7.13907L7.26924 4.97257L3.77599 1.46007C4.18816 1.22624 4.61524 1.04166 5.05724 0.906323C5.49924 0.77099 5.96774 0.703323 6.46274 0.703323C8.02674 0.703323 9.35916 1.25382 10.46 2.35482C11.561 3.45582 12.1115 4.78841 12.1115 6.35257C12.1115 6.77424 12.0717 7.16716 11.9922 7.53132C11.9127 7.89549 11.7935 8.24741 11.6345 8.58707L18.5432 15.4651L15.575 18.4131Z"
        fill="white" />
</svg>